<svg width="134" height="40" viewBox="0 0 134 40" fill="none" xmlns="http://www.w3.org/2000/svg">
<path fill="#31EFB8" d="M106.685 8.66167C106.685 7.78608 106.938 7.08957 107.447 6.58211C107.952 6.07463 108.644 5.81592 109.515 5.81592C109.995 5.81592 110.411 5.89552 110.762 6.04975C111.113 6.20398 111.43 6.42287 111.712 6.70646L115.764 2.63184C114.977 1.81095 114.052 1.16915 112.998 0.701493C111.944 0.233831 110.712 0 109.303 0C107.447 0 105.839 0.38806 104.488 1.16915C103.138 1.95025 102.089 3.00995 101.342 4.35323C100.595 5.69652 100.224 7.20397 100.224 8.87559V10.6567H95.7067V16.1791H100.224V31.2935H106.685V16.1791H113.587V16.1444L119.182 29.8757L114.517 40H121.146L124.778 31.3781L133.559 10.6568H126.593L122.403 23.1891L118.317 10.6568L113.587 10.6567H106.685V8.66167ZM64.0289 1.70149C64.6917 1.01991 65.528 0.681594 66.5422 0.681594C67.5565 0.681594 68.3878 1.01991 69.0355 1.70149C69.6839 2.38309 70.0053 3.22886 70.0053 4.24876C70.0053 5.23881 69.6839 6.08458 69.0355 6.77613C68.3878 7.46765 67.5565 7.81594 66.5422 7.81594C65.528 7.81594 64.6917 7.47263 64.0289 6.77613C63.3661 6.0796 63.0347 5.23881 63.0347 4.24876C63.0347 3.22886 63.3661 2.38309 64.0289 1.70149ZM0 1.31841H6.62948V25.4328H19.8439V31.2935H6.62948H5.11064H0V1.31841ZM27.4431 10.6568L31.5345 23.1891L35.72 10.6568H42.6859L33.9043 31.3781L30.273 40H23.6435L28.3089 29.8757L20.4772 10.6568H27.4431ZM56.7068 10.2338C54.4557 10.2338 52.6945 10.9005 51.428 12.2288V10.6567H44.9667V31.2935H51.428V19.9552C51.428 18.6268 51.7446 17.6268 52.3779 16.9602C53.0111 16.2935 53.8621 15.9602 54.9307 15.9602C55.465 15.9602 55.9449 16.0448 56.3654 16.2139C56.786 16.3831 57.1372 16.6268 57.4192 16.9353L61.2633 12.0547C60.6993 11.4328 60.0463 10.9701 59.2992 10.6766C58.5571 10.3831 57.6914 10.2338 56.7068 10.2338ZM69.7528 10.6568H63.2916V31.2935H69.7528V10.6568ZM87.4005 10.6568H94.4105L87.5835 20.6518L94.8315 31.2935H87.3611L83.571 25.1393L79.6332 31.2935H72.5831L79.9301 20.7861L72.964 10.6568H80.5184L83.9469 16.2537L87.4005 10.6568Z" />
</svg>
